<svg version="1" xmlns="http://www.w3.org/2000/svg" width="302.667" height="302.667" viewBox="0 0 227.000000 227.000000"><path d="M5 24.3c-5.1 2.6-5 .2-4.7 89.9l.2 83.7 2.3 2.3 2.3 2.3h216.8l2.3-2.3 2.3-2.3V28.1l-2.3-2.3-2.3-2.3-107.2-.2C30 23.1 7 23.3 5 24.3zm61.9 77.4C73.3 120.6 78.7 136 79 136c.3 0 5.7-15.4 12.1-34.3l11.6-34.2 10.6-.3 10.7-.3V159h-14l-.1-36.8V85.5L99.4 116c-5.7 16.8-11.1 32.4-12 34.7l-1.6 4.3H72.2l-2.6-7.3c-1.4-3.9-6.9-19.6-12.1-34.7l-9.4-27.5v36.7L48 159H35V66.9l10.2.3 10.2.3 11.5 34.2zm86.3 14.6c.3 22 .5 25.6 2 28 2.3 3.4 7.5 4.4 15.3 2.8 10.4-2.2 9.5.5 9.5-29.6V91h13v68h-6.5c-5.3 0-6.5-.3-6.5-1.6 0-1.2-.5-1.4-1.7-.9-12.7 5.5-28.2 3.8-33.6-3.6-3.7-5.1-4.7-13-4.7-38.2V91h12.9l.3 25.3z"/></svg>